<?xml version="1.0" encoding="utf-8" ?>
<svg baseProfile="tiny" height="500" version="1.2" width="2100" xmlns="http://www.w3.org/2000/svg" xmlns:ev="http://www.w3.org/2001/xml-events" xmlns:xlink="http://www.w3.org/1999/xlink"><defs /><rect fill="white" height="500" width="2100" x="0" y="0" /><line stroke="black" stroke-width="2" x1="100" x2="2000" y1="100" y2="100" /><line stroke="black" stroke-width="3" x1="100" x2="2000" y1="150" y2="150" /><line stroke="black" stroke-width="4" x1="100" x2="2000" y1="200" y2="200" /><line stroke="black" stroke-width="5" x1="100" x2="2000" y1="250" y2="250" /><line stroke="black" stroke-width="6" x1="100" x2="2000" y1="300" y2="300" /><line stroke="black" stroke-width="7" x1="100" x2="2000" y1="350" y2="350" /><line stroke="black" stroke-width="5" x1="100" x2="100" y1="100" y2="350" /><line stroke="black" stroke-width="5" x1="200" x2="200" y1="100" y2="350" /><line stroke="black" stroke-width="5" x1="300" x2="300" y1="100" y2="350" /><line stroke="black" stroke-width="5" x1="400" x2="400" y1="100" y2="350" /><line stroke="black" stroke-width="5" x1="500" x2="500" y1="100" y2="350" /><line stroke="black" stroke-width="5" x1="600" x2="600" y1="100" y2="350" /><line stroke="black" stroke-width="5" x1="700" x2="700" y1="100" y2="350" /><line stroke="black" stroke-width="5" x1="800" x2="800" y1="100" y2="350" /><line stroke="black" stroke-width="5" x1="900" x2="900" y1="100" y2="350" /><line stroke="black" stroke-width="5" x1="1000" x2="1000" y1="100" y2="350" /><line stroke="black" stroke-width="5" x1="1100" x2="1100" y1="100" y2="350" /><line stroke="black" stroke-width="5" x1="1200" x2="1200" y1="100" y2="350" /><line stroke="black" stroke-width="5" x1="1300" x2="1300" y1="100" y2="350" /><line stroke="black" stroke-width="5" x1="1400" x2="1400" y1="100" y2="350" /><line stroke="black" stroke-width="5" x1="1500" x2="1500" y1="100" y2="350" /><line stroke="black" stroke-width="5" x1="1600" x2="1600" y1="100" y2="350" /><line stroke="black" stroke-width="5" x1="1700" x2="1700" y1="100" y2="350" /><line stroke="black" stroke-width="5" x1="1800" x2="1800" y1="100" y2="350" /><line stroke="black" stroke-width="5" x1="1900" x2="1900" y1="100" y2="350" /><line stroke="black" stroke-width="5" x1="2000" x2="2000" y1="100" y2="350" /><text font-size="55" stroke="black" x="70" y="77">0</text><text font-size="55" stroke="black" x="1970" y="77">19</text><circle cx="350" cy="150" r="18.75" stroke="black" /></svg>